<svg width="39" height="37" viewBox="0 0 39 37" fill="none" xmlns="http://www.w3.org/2000/svg">
<path d="M7.33041 9.64793C10.3188 9.64793 12.9673 7.72368 13.8907 4.88158C15.6563 -0.552248 23.3437 -0.552247 25.1093 4.88158C26.0327 7.72368 28.6812 9.64793 31.6696 9.64793C37.383 9.64793 39.7586 16.9591 35.1363 20.3174C32.7187 22.0739 31.707 25.1874 32.6305 28.0295C34.396 33.4633 28.1768 37.9819 23.5545 34.6236C21.1369 32.8671 17.8631 32.8671 15.4455 34.6236C10.8232 37.9819 4.60396 33.4633 6.36952 28.0295C7.29297 25.1874 6.28133 22.0739 3.8637 20.3174C-0.758594 16.9591 1.61695 9.64793 7.33041 9.64793Z" fill="#FFC6F9" stroke="#FFA3F6"/>
</svg>